<?xml version="1.0" standalone="no"?>
<!DOCTYPE svg PUBLIC "-//W3C//DTD SVG 20010904//EN"
 "http://www.w3.org/TR/2001/REC-SVG-20010904/DTD/svg10.dtd">
<svg version="1.0" xmlns="http://www.w3.org/2000/svg"
 width="260.000000pt" height="260.000000pt" viewBox="0 0 260.000000 260.000000"
 preserveAspectRatio="xMidYMid meet">
<metadata>
Created by potrace 1.11, written by Peter Selinger 2001-2013
</metadata>
<g transform="translate(0.000000,260.000000) scale(0.100000,-0.100000)"
fill="#000000" stroke="none">
<path d="M0 1300 l0 -1300 1300 0 1300 0 0 1300 0 1300 -1300 0 -1300 0 0
-1300z m1395 588 c51 -40 55 -64 55 -358 0 -294 -4 -318 -55 -358 -28 -22 -29
-22 -566 -22 l-539 0 -32 29 -33 29 -3 303 c-3 323 -1 343 46 379 24 19 43 20
562 20 536 0 537 0 565 -22z m409 -864 c20 -8 21 -50 1 -58 -36 -14 -61 24
-33 52 14 14 12 14 32 6z m-1502 -86 c3 -31 6 -33 46 -36 34 -3 42 -7 42 -23
0 -16 -7 -19 -45 -19 l-45 0 0 -98 c0 -118 10 -138 63 -129 24 4 37 1 40 -8
16 -39 -88 -50 -123 -13 -18 20 -20 35 -20 190 0 160 1 168 19 168 15 0 21 -8
23 -32z m648 -57 c0 -12 -11 -21 -31 -27 -57 -16 -73 -51 -73 -161 -1 -94 -2
-98 -23 -101 l-23 -3 0 155 c0 149 1 156 20 156 14 0 20 -7 20 -21 0 -20 0
-20 28 -1 47 34 82 35 82 3z m480 -2 c0 -24 6 -24 37 1 18 14 41 20 75 20 89
0 139 -49 146 -141 8 -105 -47 -169 -145 -169 -35 0 -58 6 -76 20 l-26 21 -3
-78 c-3 -70 -5 -78 -23 -78 -19 0 -20 8 -23 209 -2 157 1 211 10 217 17 10 28
2 28 -22z m760 -135 c0 -150 -1 -154 -21 -154 -12 0 -23 8 -26 20 -5 20 -5 20
-30 0 -35 -27 -114 -27 -158 0 -90 56 -87 228 5 275 37 19 119 19 144 0 25
-19 36 -19 36 -1 0 16 19 25 38 18 9 -3 12 -44 12 -158z m-1528 134 c33 -23
75 -105 61 -119 -4 -4 -55 -18 -113 -30 -58 -12 -109 -25 -113 -29 -5 -4 2
-19 15 -34 33 -39 99 -47 139 -17 31 23 49 21 49 -7 0 -47 -131 -70 -192 -34
-66 39 -93 145 -54 220 36 70 144 96 208 50z m542 7 c25 -19 36 -19 36 0 0 9
9 15 25 15 l26 0 -3 -152 c-3 -139 -5 -153 -21 -156 -12 -3 -20 4 -24 17 -5
21 -5 21 -30 1 -18 -14 -41 -20 -77 -20 -96 0 -150 58 -147 157 1 65 22 108
64 133 39 24 123 26 151 5z m606 -140 c0 -148 -1 -155 -20 -155 -19 0 -20 7
-20 155 0 148 1 155 20 155 19 0 20 -7 20 -155z m644 145 c35 -13 38 -56 4
-45 -43 14 -106 17 -127 6 -26 -14 -27 -52 -3 -67 10 -7 44 -17 75 -24 94 -19
125 -84 68 -141 -27 -26 -36 -29 -96 -29 -63 0 -125 19 -125 39 0 18 30 34 43
23 18 -15 91 -26 121 -18 28 7 43 41 26 61 -6 7 -34 19 -63 25 -29 7 -61 17
-72 23 -53 27 -60 84 -16 128 25 25 37 29 85 29 30 0 66 -4 80 -10z"/>
<path d="M984 1679 c-9 -15 12 -33 30 -26 9 4 16 13 16 22 0 17 -35 21 -46 4z"/>
<path d="M418 1510 c-2 -106 0 -151 9 -154 20 -8 23 5 23 98 0 106 11 134 62
159 33 16 40 17 72 3 44 -18 59 -66 54 -177 -2 -58 0 -80 10 -84 18 -7 20 7
24 112 2 74 7 97 24 119 36 49 111 52 142 6 11 -17 18 -57 22 -129 3 -57 10
-104 15 -106 15 -3 18 211 4 246 -25 60 -118 76 -185 31 -32 -22 -39 -24 -48
-12 -31 42 -116 51 -159 18 -14 -11 -28 -20 -31 -20 -3 0 -6 9 -6 20 0 11 -7
20 -14 20 -12 0 -16 -27 -18 -150z"/>
<path d="M996 1593 c-3 -3 -6 -57 -6 -120 0 -94 3 -113 15 -113 12 0 15 19 15
114 0 105 -6 136 -24 119z"/>
<path d="M1140 1593 c-32 -12 -50 -37 -50 -70 0 -29 5 -36 35 -49 19 -7 43
-14 54 -14 10 0 29 -9 42 -19 l24 -19 -20 -22 c-20 -22 -59 -24 -124 -4 -42
13 -18 -20 26 -35 56 -20 117 -3 131 37 15 43 -1 69 -50 82 -71 20 -88 29 -88
49 0 39 54 52 113 26 12 -5 17 -3 17 9 0 27 -67 45 -110 29z"/>
<path d="M1489 845 c-14 -8 -32 -28 -39 -45 -39 -93 23 -183 113 -166 42 8 66
33 77 81 23 102 -64 177 -151 130z"/>
<path d="M1977 839 c-49 -38 -55 -132 -11 -180 22 -25 77 -34 112 -20 77 32
84 169 11 207 -39 20 -82 17 -112 -7z"/>
<path d="M533 848 c-40 -19 -72 -115 -35 -104 9 2 33 7 52 11 19 3 56 11 82
16 l48 11 -15 29 c-25 47 -79 62 -132 37z"/>
<path d="M1077 840 c-36 -29 -52 -83 -38 -130 14 -48 40 -70 90 -77 36 -5 44
-2 76 30 29 29 35 42 35 77 0 98 -93 155 -163 100z"/>
</g>
</svg>
